<?xml version="1.0" encoding="utf-8"?>
<!-- Generator: Adobe Illustrator 16.0.0, SVG Export Plug-In . SVG Version: 6.00 Build 0)  -->
<!DOCTYPE svg PUBLIC "-//W3C//DTD SVG 1.1//EN" "http://www.w3.org/Graphics/SVG/1.1/DTD/svg11.dtd">
<svg version="1.1" id="Capa_1" xmlns="http://www.w3.org/2000/svg" xmlns:xlink="http://www.w3.org/1999/xlink" x="0px" y="0px"
	 width="143.27px" height="86.374px" viewBox="0 48.96 143.27 86.374" enable-background="new 0 48.96 143.27 86.374"
	 xml:space="preserve">
<rect x="-1.115" y="47.399" opacity="0.1" fill="#CA611F" width="145.946" height="89.753"/>
<g opacity="0.2">
	<g>
		<polygon fill="#CA611F" points="82.367,110.762 64.083,68.591 54.694,68.591 34.696,115.702 43.659,115.702 59.175,77.585 
			66.589,95.276 57.1,95.276 54.103,102.854 69.751,102.854 75.12,115.702 76.718,115.702 84.511,115.702 84.516,115.702 
			82.373,110.762 		"/>
		<path fill="#0A458C" d="M108.573,90.863c0-14.848-7.797-22.271-23.392-22.271H68.349l2.239,4.941h14.595
			c11.529,0,17.297,5.777,17.297,17.33c0,13.266-5.768,19.898-17.297,19.898h-2.81l2.143,4.941h0.667
			C100.776,115.702,108.573,107.423,108.573,90.863z"/>
	</g>
</g>
</svg>
